#!OML:ASF H:\Terrain\Patient Classification 1\PLAYGROUND\JustinFriday\JustinFriday.ASF
:FULLY-SPECIFIED
:DEGREES
2450
root 6.17185 17.8302 10.5373 380.155 -74.7055 -21.7321
lowerback 13.0822 -0.764963 5.2754
upperback 0.674672 -0.0918847 3.45257
thorax -6.64149 -0.192741 0.700578
lowerneck -9.55213 -4.52325 -5.47948
upperneck 5.36533 -5.60859 3.39441
head 3.76335 -2.75271 1.75377
rclavicle 1.40143e-014 3.33958e-014
rhumerus -9.42823 -3.53006 -66.3472
rradius 80.0093
rwrist -6.07141
rhand -15.6826 -19.2208
rfingers 7.12502
rthumb 10.5064 -408.938
lclavicle 1.40143e-014 3.33958e-014
lhumerus -14.5312 -8.79546 76.7655
lradius 68.6675
lwrist -11.6704
lhand -25.1683 -19.2385
lfingers 7.12502
lthumb 1.34901 10.737
rfemur -15.1593 -3.99242 29.8809
rtibia 27.4103
rfoot -9.65052 -6.64598
rtoes 17.2449
lfemur -1.29448 4.92546 -6.39679
ltibia 46.731
lfoot -3.88718 11.4306
ltoes -3.7245
2451
root 6.08709 17.8445 10.519 380.8 -74.8817 -22.4306
lowerback 13.0385 -0.6716 5.2274
upperback 0.593176 0.0354151 3.62354
thorax -6.70123 -0.129459 0.88639
lowerneck -9.46122 -4.52548 -5.68745
upperneck 5.51554 -5.58689 3.32396
head 3.80339 -2.7513 1.77017
rclavicle 1.1281e-014 4.37326e-014
rhumerus -7.87994 -2.65799 -65.2456
rradius 81.2993
rwrist -6.90609
rhand -17.1755 -19.6902
rfingers 7.12502
rthumb 9.06595 -409.475
lclavicle 1.1281e-014 4.37326e-014
lhumerus -13.4766 -8.47071 76.304
lradius 69.6881
lwrist -11.9134
lhand -24.9108 -19.2601
lfingers 7.12502
lthumb 1.59769 10.7136
rfemur -14.4812 -4.02269 30.1287
rtibia 26.7459
rfoot -9.60281 -6.27105
rtoes 17.5324
lfemur -2.35659 5.01922 -6.04525
ltibia 48.6667
lfoot -2.46766 11.0042
ltoes 0.823044
2452
root 6.0059 17.8531 10.5026 381.529 -74.7939 -23.2588
lowerback 13.007 -0.717248 5.50188
upperback 0.545142 0.0195567 3.72663
thorax -6.73591 -0.146588 0.845802
lowerneck -9.13927 -4.52021 -6.08533
upperneck 5.27234 -5.5734 3.6919
head 3.68669 -2.73984 1.97437
rclavicle -3.56322e-014 5.88403e-014
rhumerus -6.22639 -2.14503 -64.337
rradius 82.4647
rwrist -7.05713
rhand -17.88 -19.8331
rfingers 7.12502
rthumb 8.38617 -409.647
lclavicle -3.56322e-014 5.88403e-014
lhumerus -12.3221 -8.39831 75.5253
lradius 70.8664
lwrist -11.8392
lhand -24.9337 -18.778
lfingers 7.12502
lthumb 1.57558 11.1959
rfemur -13.7897 -4.13727 30.5144
rtibia 26.0974
rfoot -9.55755 -6.11363
rtoes 17.2619
lfemur -3.42544 4.95225 -5.57082
ltibia 50.4865
lfoot -0.93161 10.5585
ltoes 4.24844
2453
root 5.92697 17.8607 10.4889 381.654 -74.6944 -23.6111
lowerback 13.1208 -0.900913 5.66292
upperback 0.54156 -0.193584 3.68201
thorax -6.81004 -0.257573 0.750363
lowerneck -9.00873 -4.34055 -5.91938
upperneck 5.25915 -5.37321 3.84858
head 3.64511 -2.63186 2.01314
rclavicle -7.65321e-015 -3.73715e-014
rhumerus -4.48551 -1.73466 -63.8839
rradius 83.4831
rwrist -6.18998
rhand -18.0199 -19.8501
rfingers 7.12502
rthumb 8.25116 -409.669
lclavicle -7.65321e-015 -3.73715e-014
lhumerus -11.2993 -8.35203 74.2752
lradius 72.1246
lwrist -11.728
lhand -25.1662 -18.2982
lfingers 7.12502
lthumb 1.35105 11.6773
rfemur -12.9604 -4.29815 30.7505
rtibia 25.4641
rfoot -9.37104 -6.11662
rtoes 16.399
lfemur -4.35915 4.9338 -5.19214
ltibia 52.2822
lfoot 0.432084 10.1644
ltoes 8.28391
2454
root 5.84312 17.8753 10.4741 382.308 -74.9385 -24.5815
lowerback 13.3224 -0.982928 5.65057
upperback 0.55375 -0.290504 3.65007
thorax -6.91306 -0.306742 0.745457
lowerneck -8.96775 -4.09222 -5.54261
upperneck 5.47935 -5.10005 3.91894
head 3.68717 -2.48669 1.98721
rclavicle 9.49197e-015 2.62396e-014
rhumerus -2.69558 -1.37882 -63.4939
rradius 84.4049
rwrist -4.85907
rhand -17.7855 -19.9622
rfingers 7.12502
rthumb 8.47739 -409.772
lclavicle 9.49197e-015 2.62396e-014
lhumerus -10.3053 -8.08469 73.0846
lradius 73.2328
lwrist -11.8075
lhand -25.2253 -18.0874
lfingers 7.12502
lthumb 1.29397 11.8884
rfemur -11.9675 -4.16113 30.9769
rtibia 24.7806
rfoot -9.24272 -5.944
rtoes 16.9368
lfemur -5.04543 5.19064 -4.78128
ltibia 53.9767
lfoot 1.6547 9.92019
ltoes 12.7302
2455
root 5.76311 17.8872 10.4553 383.362 -75.1295 -25.936
lowerback 13.4965 -0.940951 5.708
upperback 0.603848 -0.213083 3.73344
thorax -6.95477 -0.271738 0.789639
lowerneck -8.94601 -3.99106 -5.32149
upperneck 5.56894 -4.9917 3.87614
head 3.69818 -2.43033 1.93973
rclavicle 1.6201e-014 -2.38542e-014
rhumerus -0.863163 -1.44181 -62.7385
rradius 85.2434
rwrist -3.60457
rhand -17.3511 -19.6691
rfingers 7.12502
rthumb 8.89651 -409.462
lclavicle 1.6201e-014 -2.38542e-014
lhumerus -8.8851 -7.78996 72.3337
lradius 74.1092
lwrist -12.0059
lhand -25.1486 -17.825
lfingers 7.12502
lthumb 1.36802 12.1503
rfemur -11.0467 -3.95407 31.3327
rtibia 24.1117
rfoot -9.31487 -5.80252
rtoes 18.6274
lfemur -5.78217 5.41152 -4.24531
ltibia 55.5761
lfoot 2.97272 9.47564
ltoes 13.9539
2456
root 5.69083 17.8964 10.4415 383.844 -75.1793 -26.5968
lowerback 13.5583 -0.87521 5.86859
upperback 0.667448 -0.0980098 3.84229
thorax -6.91821 -0.220228 0.793332
lowerneck -8.95683 -4.01458 -5.35869
upperneck 5.51288 -5.0017 3.69256
head 3.67512 -2.44342 1.88319
rclavicle -1.44119e-015 -7.95139e-015
rhumerus 1.03537 -1.76684 -61.702
rradius 85.9615
rwrist -2.42257
rhand -17.2986 -18.7387
rfingers 7.12502
rthumb 8.94724 -408.529
lclavicle -1.44119e-015 -7.95139e-015
lhumerus -7.21491 -7.50822 71.8443
lradius 74.9073
lwrist -12.4378
lhand -25.1685 -18.0165
lfingers 7.12502
lthumb 1.34885 11.959
rfemur -10.2727 -3.84335 31.5932
rtibia 23.4108
rfoot -8.96693 -5.98084
rtoes 17.8218
lfemur -6.65088 5.26145 -3.97463
ltibia 57.016
lfoot 4.05873 9.29585
ltoes 15.7764
2457
root 5.61647 17.8984 10.4304 384.937 -75.421 -27.8437
lowerback 13.5359 -0.749288 6.09897
upperback 0.768905 0.0946382 3.92327
thorax -6.79088 -0.131574 0.711052
lowerneck -9.21354 -4.07369 -5.46348
upperneck 5.6683 -5.05479 3.65837
head 3.78599 -2.4716 1.88381
rclavicle 1.43125e-014 2.22639e-014
rhumerus 2.99104 -2.07914 -60.8091
rradius 86.6049
rwrist -1.44815
rhand -18.1446 -17.1929
rfingers 7.12502
rthumb 8.13081 -407.017
lclavicle 1.43125e-014 2.22639e-014
lhumerus -5.4877 -7.41321 71.1294
lradius 75.6674
lwrist -12.6588
lhand -25.5923 -18.4021
lfingers 7.12502
lthumb 0.939561 11.5756
rfemur -9.52237 -3.76903 31.9074
rtibia 22.7413
rfoot -8.52967 -5.79035
rtoes 16.4701
lfemur -7.38911 5.19855 -3.68002
ltibia 58.3035
lfoot 4.62226 9.18665
ltoes 16.577
2458
root 5.53584 17.9034 10.4165 386.549 -75.6874 -29.6226
lowerback 13.4981 -0.587352 6.3726
upperback 0.827938 0.341403 3.96022
thorax -6.69706 -0.018483 0.5485
lowerneck -9.46286 -4.1443 -5.43556
upperneck 5.95309 -5.15156 3.72214
head 3.94301 -2.51461 1.89048
rclavicle 1.2921e-015 1.11319e-014
rhumerus 4.7439 -2.36585 -60.0489
rradius 87.309
rwrist -1.0982
rhand -18.4159 -17.3935
rfingers 7.12502
rthumb 7.86896 -407.227
lclavicle 1.2921e-015 1.11319e-014
lhumerus -3.8127 -7.62708 70.2371
lradius 76.5066
lwrist -12.5283
lhand -26.0632 -18.2568
lfingers 7.12502
lthumb 0.484736 11.7224
rfemur -8.78631 -3.6069 32.3237
rtibia 22.1797
rfoot -8.42124 -5.51155
rtoes 16.2217
lfemur -7.98943 5.13189 -3.27648
ltibia 59.4631
lfoot 4.66287 8.68118
ltoes 16.6928
2459
root 5.45446 17.9112 10.4051 386.961 -75.8697 -30.1971
lowerback 13.5569 -0.536246 6.47889
upperback 0.778926 0.431764 3.88773
thorax -6.77791 0.0197131 0.39595
lowerneck -9.36918 -4.13334 -5.34231
upperneck 6.13544 -5.16508 3.79671
head 3.98941 -2.51734 1.89921
rclavicle 1.21259e-014 -3.97569e-015
rhumerus 6.36914 -2.30583 -59.3944
rradius 88.067
rwrist -1.47331
rhand -19.3378 -18.2336
rfingers 7.12502
rthumb 6.97903 -408.099
lclavicle 1.21259e-014 -3.97569e-015
lhumerus -2.40143 -7.61076 69.3482
lradius 77.4631
lwrist -12.5759
lhand -26.1083 -18.3024
lfingers 7.12502
lthumb 0.441115 11.6769
rfemur -8.10739 -3.90437 32.4614
rtibia 21.7121
rfoot -8.21319 -5.30787
rtoes 13.923
lfemur -8.56238 4.88627 -3.18031
ltibia 60.4946
lfoot 4.40984 7.98105
ltoes 19.1406
2460
root 5.38607 17.9049 10.4045 387.715 -75.8097 -31.1666
lowerback 13.7053 -0.713882 6.87216
upperback 0.731234 0.270522 3.83787
thorax -6.91737 -0.0760149 0.157034
lowerneck -9.26707 -3.9636 -4.95874
upperneck 6.38492 -4.98318 3.61925
head 4.0262 -2.42752 1.78249
rclavicle 1.2424e-015 -1.66979e-014
rhumerus 8.22027 -1.71822 -58.9751
rradius 88.7925
rwrist -2.13294
rhand -20.9179 -18.3993
rfingers 7.12502
rthumb 5.45357 -408.309
lclavicle 1.2424e-015 -1.66979e-014
lhumerus -1.07037 -7.17817 68.2594
lradius 78.3823
lwrist -12.6804
lhand -26.1447 -18.3212
lfingers 7.12502
lthumb 0.405945 11.6582
rfemur -7.4965 -4.05754 32.7659
rtibia 21.3498
rfoot -8.08341 -5.38057
rtoes 11.7598
lfemur -9.27617 4.69718 -2.85323
ltibia 61.5011
lfoot 3.90576 7.14527
ltoes 18.9453
